<svg xmlns="http://www.w3.org/2000/svg" xmlns:xlink="http://www.w3.org/1999/xlink" version="1.1" x="0px" y="0px" viewBox="0 0 100 125" enable-background="new 0 0 100 100" xml:space="preserve" style="fill:inherit"><g><g><path d="M33.189,28.09l-7.984-13.425c-5.348,3.181-9.986,7.608-13.412,12.808l13.043,8.596    C26.971,32.831,29.859,30.072,33.189,28.09z"/><rect x="5" y="54.544" width="15.621" height="16.601"/><path d="M5,50.167v0.039h15.621v-0.039c0-3.937,0.863-7.708,2.57-11.212L9.146,32.12C6.396,37.771,5,43.844,5,50.167z"/><path d="M47.861,23.925V8.55c0,0-9.836,0.335-17.896,3.688l6.18,14.347C41.707,23.984,47.861,23.925,47.861,23.925z"/><rect x="5" y="74.852" width="15.621" height="16.6"/><rect x="25.893" y="74.852" width="21.099" height="16.6"/><rect x="53.01" y="74.852" width="21.1" height="16.6"/><path d="M74.797,14.666l-7.984,13.425c3.33,1.981,6.219,4.74,8.354,7.979l13.043-8.596C84.781,22.275,80.145,17.846,74.797,14.666    z"/><rect x="79.379" y="54.544" width="15.621" height="16.601"/><path d="M90.855,32.12l-14.047,6.835c1.707,3.504,2.57,7.275,2.57,11.212v0.039H95v-0.039C95,43.844,93.605,37.771,90.855,32.12z"/><path d="M70.035,12.236c-8.059-3.353-17.895-3.688-17.895-3.688v15.375c0,0,6.152,0.059,11.717,2.659L70.035,12.236z"/><rect x="79.379" y="74.852" width="15.621" height="16.6"/><path d="M51.35,69.377h4.256c0.01-0.011,0.018-0.021,0.023-0.032c2.021-0.313,4.152-1.733,5.291-3.974    c0.395,1.177,0.096,2.628-0.445,4.006h2.813c2.973-5.619-2.043-12.355-2.043-12.355c-0.318,1.98-1.186,3.336-2.178,4.261    c0.107-0.63,0.189-1.267,0.242-1.902c0.129-2.022,0.006-4.038-0.412-6.024c-0.494-2.346-1.363-4.61-2.506-6.715    c-1.15-2.115-2.572-4.101-4.23-5.85c-0.666-0.706-1.375-1.355-2.102-1.996c-1.027-0.908-2.057-1.816-3.084-2.725    c-1.086,1.302-2.172,2.604-3.259,3.906c-2.731,3.275-5.102,6.973-6.461,11.041c-0.776,2.321-1.315,4.709-1.448,7.159    c-0.135,2.457,0.104,4.933,0.778,7.304c0.384,1.35,0.909,2.662,1.575,3.897h3.025c-0.045-0.914-0.043-1.83,0.002-2.737    c0.123-2.443,0.59-4.875,1.395-7.188c1.096-3.153,2.741-6.063,4.678-8.771c0.107-0.15,0.219-0.299,0.33-0.447    c1.41,1.951,2.608,4.076,3.416,6.349c0.811,2.276,1.215,4.677,1.16,7.094c-0.043,1.902-0.346,3.783-0.797,5.628    C51.363,69.328,51.355,69.354,51.35,69.377z"/></g></g><text x="0" y="115" fill="#000000" font-size="5px" font-weight="bold" font-family="'Helvetica Neue', Helvetica, Arial-Unicode, Arial, Sans-serif">Created by NAMI A</text><text x="0" y="120" fill="#000000" font-size="5px" font-weight="bold" font-family="'Helvetica Neue', Helvetica, Arial-Unicode, Arial, Sans-serif">from the Noun Project</text></svg>